<svg width="535" height="1024" viewBox="0 0 535 1024" fill="none" xmlns="http://www.w3.org/2000/svg">
<path d="M16 1095.5C93.5 838.5 183.5 428.4 231.5 596C291.5 805.5 264.5 829.5 348 617C414.8 447 531.667 205.5 617.5 -18" stroke="#D7FF67" stroke-width="10"/>
<path d="M16 1168.5C93.5 911.5 183.5 501.4 231.5 669C291.5 878.5 264.5 902.5 348 690C414.8 520 531.667 278.5 617.5 55" stroke="#67A4FF" stroke-width="10"/>
<path d="M5 1269.5C82.5 1012.5 172.5 602.4 220.5 770C280.5 979.5 253.5 1003.5 337 791C403.8 621 520.667 379.5 606.5 156" stroke="#FF6767" stroke-width="10"/>
</svg>
